<svg xmlns:xlink="http://www.w3.org/1999/xlink" xmlns="http://www.w3.org/2000/svg" class="css-ze2te4 css-qd6ojx" viewBox="0 0 100.00000000000001 97.0797021266627" width="110"  height="107" ><g transform="translate(-6.026288518764984, -6.949595406373224) scale(1.2331762728349818)" class="css-14u6vco" fill="#F0FFF3"><g xmlns="http://www.w3.org/2000/svg" fill="#F0FFF3"><path d="M26,38.8l-0.6,7c0,0,0,0,0,0l-0.1,0.4l-1.1,4.6l-1.6,0.8l0,0c-0.5-0.2-0.8-0.2-0.8-0.2c-1.2-0.3-2.3-0.1-3.3,0.5   c-1.8,1-2.6,2.8-2.6,2.8l-4.5,10.7l-3.3,7.7c0,0,0,0,0,0c0,0,0,0,0,0l-2.9,6.9c-1.7,3.8,4,6.1,5.6,2.4l2.9-6.9c0,0,0,0,0,0   c0,0,0,0,0,0l1.9-4.4c0,0,0,0,0,0l3.7,3.3l-0.8,6.3c-0.5,4.2,5.5,4.8,6,0.7l0.9-7.7c0,0,0-0.1,0-0.1c0.2-1-0.2-2.1-1.3-2.9   l-2.8-2.6c1.3-2.9,3-6.7,3.5-7.7c0.6-1.1,0.9-2.1,1.1-2.9c0.9-0.8,1.6-1.9,1.9-3.2l0.1-0.3l1.7-6.8l0.1-0.4c0,0,0,0,0,0   c0.1-0.2,0.1-0.4,0.1-0.7l0.7-7.2C30.8,36.1,26.3,35.7,26,38.8z" fill="#F0FFF3"></path><circle cx="19.1" cy="45.2" r="5.4" fill="#F0FFF3"></circle></g><g xmlns="http://www.w3.org/2000/svg" fill="#F0FFF3"><path d="M84.8,78.6l-4.3-4.7l-2.3-4.4l0,0l-3.4-14.3c0,0-0.4-1.8-1.8-3.1c-2.3-2.5-6.2-2.7-9-0.5l-0.2,0.2l-3.8,3l-6-1.3   c-3.1-0.7-4,3.7-1,4.4l6.8,1.5c0.3,0.1,0.6,0.1,1,0.1c0.7,0,1.2-0.3,1.5-0.8l0,0l2.3-1.8c0.1,0.7,0.3,1.6,0.6,2.5   c0.3,1,1.4,5,2.2,8.4l-4.2,2.8c-1.2,0.6-1.7,1.6-1.7,2.6c0,0.3,0,0.7,0.1,1.1l1.6,7.6c0.9,4,6.8,2.8,5.9-1.3l-1.2-5.8l4.7-3.2   l2.4,4.7c0.1,0.4,0.3,0.8,0.6,1.1c0.2,0.3,0.4,0.5,0.7,0.7l4.6,5C84,85.8,88,81.3,84.8,78.6z" fill="#F0FFF3"></path><circle cx="65.1" cy="44.1" r="5.4" fill="#F0FFF3"></circle></g><g xmlns="http://www.w3.org/2000/svg" fill="#F0FFF3"><circle cx="40.1" cy="50.8" r="5.3" fill="#F0FFF3"></circle><path d="M53.4,78.4h-4.1l0-14.3c0.8-0.3,1.5-1,1.5-2.2l0-9.6c0,0,0-0.1,0-0.1l0-0.1c0-0.3-0.1-0.6-0.2-0.9l-0.9-4.6   c-0.6-3.1-5.1-2.2-4.5,0.9l1,5l0,4.4l-11.2,1l-2-2l0.7-5.4c0.4-3.1-4.1-3.7-4.5-0.6l-0.8,6.4c0,0.1,0,0.2,0,0.3c0,0.1,0,0.1,0,0.2   c0,0.1,0,0.1,0,0.2c0,0.1,0,0.2,0.1,0.4c0,0,0,0.1,0,0.1c0,0.1,0.1,0.2,0.1,0.3c0,0,0,0.1,0.1,0.1c0.1,0.2,0.3,0.4,0.5,0.6l6.9,6.9   c0.1,0.1,0.3,0.2,0.4,0.3l0,5.1h-5.3c0,0,0,0,0,0c-0.1,0-0.2,0-0.3,0c-0.1,0-0.2,0-0.2,0c0,0,0,0,0,0c-0.6,0.1-1.1,0.4-1.5,0.7   c0,0,0,0,0,0c0,0.1-0.1,0.1-0.1,0.2c-0.3,0.3-0.5,0.7-0.6,1.2c0,0,0,0,0,0c0,0.1,0,0.2-0.1,0.2c0,0.2-0.1,0.4-0.1,0.6c0,0,0,0,0,0   v7.5c0,4,5.9,4.1,5.9,0v-4.6h9.2l-0.1,4.6c0,0,0,0,0,0c0,0.1,0,0.2,0,0.3c0,0.1,0,0.2,0,0.3c0,0,0,0,0,0c0.1,0.6,0.4,1.1,0.7,1.5   c0,0,0,0,0,0c0,0.1,0.1,0.1,0.1,0.1c0.4,0.3,0.8,0.6,1.4,0.7c0.1,0,0.2,0,0.3,0c0,0,0,0,0,0c0.1,0,0.2,0,0.3,0c0,0,0,0,0,0h7   C57.3,84.3,57.5,78.4,53.4,78.4z M37.6,60.2c0,0,0,0.1-0.1,0.1l-0.1-0.1L37.6,60.2z" fill="#F0FFF3"></path></g><g xmlns="http://www.w3.org/2000/svg" fill="#F0FFF3"><circle cx="52.5" cy="11.4" r="5.2" fill="#F0FFF3"></circle><path d="M63.7,19.7l-2.9,3l-6.5-4.2c-0.2-0.1-0.3-0.2-0.5-0.3c-0.2-0.1-0.3-0.1-0.5-0.1c0,0-0.1,0-0.1,0l-6.5-1.4l-4.6-9.5   c-1.5-3.2-6.1-1-4.6,2.2l5.8,11.8l-2,10.1L37,30.8c-1.6-0.4-2.9,0.3-3.5,1.4c-0.3,0.4-0.6,0.9-0.7,1.5l-2.1,9.5   c-0.9,4.3,5.5,5.8,6.5,1.4l1.5-7l9.8,1.1l2.6,12.2c0.9,4.4,7.5,3.1,6.5-1.4l-3.5-16.3l1.6-7.8l4,2.5c0.3,0.2,0.5,0.3,0.8,0.4   c0.1,0,0.2,0.1,0.3,0.1c0.1,0,0.1,0,0.2,0c0.1,0,0.2,0,0.3,0c0.1,0,0.2,0,0.3,0c0.1,0,0.2,0,0.2,0c0.1,0,0.2-0.1,0.3-0.1   c0.1,0,0.1,0,0.2-0.1c0.1,0,0.2-0.1,0.3-0.1c0.2-0.1,0.4-0.3,0.7-0.5l4.2-4.3C69.8,20.8,66.2,17.2,63.7,19.7z" fill="#F0FFF3"></path></g></g></svg>