<svg xmlns:xlink="http://www.w3.org/1999/xlink" xmlns="http://www.w3.org/2000/svg" viewBox="0 0 320 97.0797021266627" height="97.0797021266627" width="320" style="width: 320px; height: 97.0797px; position: absolute; top: 50%; left: 50%; transform: translate(-50%, -50%) scale(0.391875); z-index: 0; cursor: pointer;"><defs id="SvgjsDefs3506"><linearGradient id="SvgjsLinearGradient3511"><stop id="SvgjsStop3512" stop-color="#00ff8f" offset="0"></stop><stop id="SvgjsStop3513" stop-color="#00a1ff" offset="1"></stop></linearGradient><linearGradient id="SvgjsLinearGradient3514"><stop id="SvgjsStop3515" stop-color="#00ff8f" offset="0"></stop><stop id="SvgjsStop3516" stop-color="#00a1ff" offset="1"></stop></linearGradient><linearGradient id="SvgjsLinearGradient3511"><stop id="SvgjsStop3512" stop-color="#00ff8f" offset="0"></stop><stop id="SvgjsStop3513" stop-color="#00a1ff" offset="1"></stop></linearGradient><linearGradient id="SvgjsLinearGradient3511"><stop id="SvgjsStop3512" stop-color="#00ff8f" offset="0"></stop><stop id="SvgjsStop3513" stop-color="#00a1ff" offset="1"></stop></linearGradient><linearGradient id="SvgjsLinearGradient3511"><stop id="SvgjsStop3512" stop-color="#00ff8f" offset="0"></stop><stop id="SvgjsStop3513" stop-color="#00a1ff" offset="1"></stop></linearGradient><linearGradient id="SvgjsLinearGradient3511"><stop id="SvgjsStop3512" stop-color="#00ff8f" offset="0"></stop><stop id="SvgjsStop3513" stop-color="#00a1ff" offset="1"></stop></linearGradient><linearGradient id="SvgjsLinearGradient3511"><stop id="SvgjsStop3512" stop-color="#00ff8f" offset="0"></stop><stop id="SvgjsStop3513" stop-color="#00a1ff" offset="1"></stop></linearGradient><linearGradient id="SvgjsLinearGradient3511"><stop id="SvgjsStop3512" stop-color="#00ff8f" offset="0"></stop><stop id="SvgjsStop3513" stop-color="#00a1ff" offset="1"></stop></linearGradient><linearGradient id="SvgjsLinearGradient3511"><stop id="SvgjsStop3512" stop-color="#00ff8f" offset="0"></stop><stop id="SvgjsStop3513" stop-color="#00a1ff" offset="1"></stop></linearGradient><linearGradient id="SvgjsLinearGradient3511"><stop id="SvgjsStop3512" stop-color="#00ff8f" offset="0"></stop><stop id="SvgjsStop3513" stop-color="#00a1ff" offset="1"></stop></linearGradient><linearGradient id="SvgjsLinearGradient3511"><stop id="SvgjsStop3512" stop-color="#00ff8f" offset="0"></stop><stop id="SvgjsStop3513" stop-color="#00a1ff" offset="1"></stop></linearGradient><linearGradient id="SvgjsLinearGradient3511"><stop id="SvgjsStop3512" stop-color="#00ff8f" offset="0"></stop><stop id="SvgjsStop3513" stop-color="#00a1ff" offset="1"></stop></linearGradient><linearGradient id="SvgjsLinearGradient3511"><stop id="SvgjsStop3512" stop-color="#00ff8f" offset="0"></stop><stop id="SvgjsStop3513" stop-color="#00a1ff" offset="1"></stop></linearGradient><linearGradient id="SvgjsLinearGradient3511"><stop id="SvgjsStop3512" stop-color="#00ff8f" offset="0"></stop><stop id="SvgjsStop3513" stop-color="#00a1ff" offset="1"></stop></linearGradient><linearGradient id="SvgjsLinearGradient3511"><stop id="SvgjsStop3512" stop-color="#00ff8f" offset="0"></stop><stop id="SvgjsStop3513" stop-color="#00a1ff" offset="1"></stop></linearGradient><linearGradient id="SvgjsLinearGradient3514"><stop id="SvgjsStop3515" stop-color="#00ff8f" offset="0"></stop><stop id="SvgjsStop3516" stop-color="#00a1ff" offset="1"></stop></linearGradient><linearGradient id="SvgjsLinearGradient3514"><stop id="SvgjsStop3515" stop-color="#00ff8f" offset="0"></stop><stop id="SvgjsStop3516" stop-color="#00a1ff" offset="1"></stop></linearGradient></defs><g id="SvgjsG3507" featurekey="symbolFeature-0" transform="matrix(1.2331762728349818,0,0,1.2331762728349818,-6.026288518764984,-6.949595406373224)" fill="url(&quot;#SvgjsLinearGradient3511&quot;)"><g xmlns="http://www.w3.org/2000/svg" fill="url(&quot;#SvgjsLinearGradient3511&quot;)"><path d="M26,38.8l-0.6,7c0,0,0,0,0,0l-0.1,0.4l-1.1,4.6l-1.6,0.8l0,0c-0.5-0.2-0.8-0.2-0.8-0.2c-1.2-0.3-2.3-0.1-3.3,0.5   c-1.8,1-2.6,2.8-2.6,2.8l-4.5,10.7l-3.3,7.7c0,0,0,0,0,0c0,0,0,0,0,0l-2.9,6.9c-1.7,3.8,4,6.1,5.6,2.4l2.9-6.9c0,0,0,0,0,0   c0,0,0,0,0,0l1.9-4.4c0,0,0,0,0,0l3.7,3.3l-0.8,6.3c-0.5,4.2,5.5,4.8,6,0.7l0.9-7.7c0,0,0-0.1,0-0.1c0.2-1-0.2-2.1-1.3-2.9   l-2.8-2.6c1.3-2.9,3-6.7,3.5-7.7c0.6-1.1,0.9-2.1,1.1-2.9c0.9-0.8,1.6-1.9,1.9-3.2l0.1-0.3l1.7-6.8l0.1-0.4c0,0,0,0,0,0   c0.1-0.2,0.1-0.4,0.1-0.7l0.7-7.2C30.8,36.1,26.3,35.7,26,38.8z" fill="url(&quot;#SvgjsLinearGradient3511&quot;)"></path><circle cx="19.1" cy="45.2" r="5.4" fill="url(&quot;#SvgjsLinearGradient3511&quot;)"></circle></g><g xmlns="http://www.w3.org/2000/svg" fill="url(&quot;#SvgjsLinearGradient3511&quot;)"><path d="M84.8,78.6l-4.3-4.7l-2.3-4.4l0,0l-3.4-14.3c0,0-0.4-1.8-1.8-3.1c-2.3-2.5-6.2-2.7-9-0.5l-0.2,0.2l-3.8,3l-6-1.3   c-3.1-0.7-4,3.7-1,4.4l6.8,1.5c0.3,0.1,0.6,0.1,1,0.1c0.7,0,1.2-0.3,1.5-0.8l0,0l2.3-1.8c0.1,0.7,0.3,1.6,0.6,2.5   c0.3,1,1.4,5,2.2,8.4l-4.2,2.8c-1.2,0.6-1.7,1.6-1.7,2.6c0,0.3,0,0.7,0.1,1.1l1.6,7.6c0.9,4,6.8,2.8,5.9-1.3l-1.2-5.8l4.7-3.2   l2.4,4.7c0.1,0.4,0.3,0.8,0.6,1.1c0.2,0.3,0.4,0.5,0.7,0.7l4.6,5C84,85.8,88,81.3,84.8,78.6z" fill="url(&quot;#SvgjsLinearGradient3511&quot;)"></path><circle cx="65.1" cy="44.1" r="5.4" fill="url(&quot;#SvgjsLinearGradient3511&quot;)"></circle></g><g xmlns="http://www.w3.org/2000/svg" fill="url(&quot;#SvgjsLinearGradient3511&quot;)"><circle cx="40.1" cy="50.8" r="5.3" fill="url(&quot;#SvgjsLinearGradient3511&quot;)"></circle><path d="M53.4,78.4h-4.1l0-14.3c0.8-0.3,1.5-1,1.5-2.2l0-9.6c0,0,0-0.1,0-0.1l0-0.1c0-0.3-0.1-0.6-0.2-0.9l-0.9-4.6   c-0.6-3.1-5.1-2.2-4.5,0.9l1,5l0,4.4l-11.2,1l-2-2l0.7-5.4c0.4-3.1-4.1-3.7-4.5-0.6l-0.8,6.4c0,0.1,0,0.2,0,0.3c0,0.1,0,0.1,0,0.2   c0,0.1,0,0.1,0,0.2c0,0.1,0,0.2,0.1,0.4c0,0,0,0.1,0,0.1c0,0.1,0.1,0.2,0.1,0.3c0,0,0,0.1,0.1,0.1c0.1,0.2,0.3,0.4,0.5,0.6l6.9,6.9   c0.1,0.1,0.3,0.2,0.4,0.3l0,5.1h-5.3c0,0,0,0,0,0c-0.1,0-0.2,0-0.3,0c-0.1,0-0.2,0-0.2,0c0,0,0,0,0,0c-0.6,0.1-1.1,0.4-1.5,0.7   c0,0,0,0,0,0c0,0.1-0.1,0.1-0.1,0.2c-0.3,0.3-0.5,0.7-0.6,1.2c0,0,0,0,0,0c0,0.1,0,0.2-0.1,0.2c0,0.2-0.1,0.4-0.1,0.6c0,0,0,0,0,0   v7.5c0,4,5.9,4.1,5.9,0v-4.6h9.2l-0.1,4.6c0,0,0,0,0,0c0,0.1,0,0.2,0,0.3c0,0.1,0,0.2,0,0.3c0,0,0,0,0,0c0.1,0.6,0.4,1.1,0.7,1.5   c0,0,0,0,0,0c0,0.1,0.1,0.1,0.1,0.1c0.4,0.3,0.8,0.6,1.4,0.7c0.1,0,0.2,0,0.3,0c0,0,0,0,0,0c0.1,0,0.2,0,0.3,0c0,0,0,0,0,0h7   C57.3,84.3,57.5,78.4,53.4,78.4z M37.6,60.2c0,0,0,0.1-0.1,0.1l-0.1-0.1L37.6,60.2z" fill="url(&quot;#SvgjsLinearGradient3511&quot;)"></path></g><g xmlns="http://www.w3.org/2000/svg" fill="url(&quot;#SvgjsLinearGradient3511&quot;)"><circle cx="52.5" cy="11.4" r="5.2" fill="url(&quot;#SvgjsLinearGradient3511&quot;)"></circle><path d="M63.7,19.7l-2.9,3l-6.5-4.2c-0.2-0.1-0.3-0.2-0.5-0.3c-0.2-0.1-0.3-0.1-0.5-0.1c0,0-0.1,0-0.1,0l-6.5-1.4l-4.6-9.5   c-1.5-3.2-6.1-1-4.6,2.2l5.8,11.8l-2,10.1L37,30.8c-1.6-0.4-2.9,0.3-3.5,1.4c-0.3,0.4-0.6,0.9-0.7,1.5l-2.1,9.5   c-0.9,4.3,5.5,5.8,6.5,1.4l1.5-7l9.8,1.1l2.6,12.2c0.9,4.4,7.5,3.1,6.5-1.4l-3.5-16.3l1.6-7.8l4,2.5c0.3,0.2,0.5,0.3,0.8,0.4   c0.1,0,0.2,0.1,0.3,0.1c0.1,0,0.1,0,0.2,0c0.1,0,0.2,0,0.3,0c0.1,0,0.2,0,0.3,0c0.1,0,0.2,0,0.2,0c0.1,0,0.2-0.1,0.3-0.1   c0.1,0,0.1,0,0.2-0.1c0.1,0,0.2-0.1,0.3-0.1c0.2-0.1,0.4-0.3,0.7-0.5l4.2-4.3C69.8,20.8,66.2,17.2,63.7,19.7z" fill="url(&quot;#SvgjsLinearGradient3511&quot;)"></path></g></g><g id="SvgjsG3508" featurekey="nameFeature-0" transform="matrix(2.0072260259445356,0,0,2.0072260259445356,120.72260594437341,-7.371337657065297)" fill="url(&quot;#SvgjsLinearGradient3514&quot;)"><path d="M4.84 18.64 l2.96 -5.56 l0.28 -0.44 c0.88 0.36 2.72 0.8 2.72 2 c0 0.16 0 0.36 -0.12 0.52 l-1.52 2.92 l0 0.04 c0.32 0 0.64 -0.04 0.96 -0.04 c1.4 0 2.8 0.4 2.8 2 c0 0.96 -0.52 1.76 -1.12 2.48 l-0.12 0 c-0.28 0 -0.72 -0.16 -0.72 -0.52 s0.16 -0.72 0.16 -1.04 c0 -0.96 -0.76 -0.96 -1.48 -0.96 c-0.4 0.04 -1.44 0.16 -1.44 0.16 l-0.08 0 l-0.96 1.96 l-2.6 6 l-0.72 2.04 c-0.32 1 -0.64 2.12 -0.64 3.2 c0 0.52 0.08 1.24 0.72 1.32 c2 0 3.56 -1.28 4.92 -2.6 l0.88 -0.88 l1.48 -1.68 l3.28 -4.12 s0.2 -0.28 0.28 -0.4 c0.04 -0.08 0.04 -0.16 0.04 -0.2 l0.04 -0.04 c0.4 0 0.92 0.08 0.92 0.6 l0 0.08 l-2.64 3.52 l-3.12 3.56 l-1.52 1.48 c-0.08 0.12 -0.88 0.8 -1.16 1 c-1 0.8 -2.36 1.76 -3.72 1.76 c-2.76 0 -3.96 -1.84 -3.96 -4.44 c0 -1.2 0.2 -2.4 0.6 -3.52 l0.64 -1.84 l1.12 -2.68 l1.84 -3.72 c-1.68 -0.12 -3.52 -0.68 -3.52 -2.76 c0 -0.56 0.04 -2 0.84 -2 c0.24 0 0.56 0.16 0.56 0.44 c0 0.24 -0.08 0.48 -0.08 0.72 c0 1.52 1.44 1.68 2.64 1.68 c0.16 0 0.56 -0.04 0.56 -0.04 z M10.8 31.16 c0 -4.48 4.48 -9.6 9.08 -9.6 c1.16 0 2.4 0.48 2.4 1.84 c0 2.8 -4.28 4.44 -6.76 4.72 c-0.2 0.72 -0.36 1.48 -0.36 2.28 c0 1.12 0.36 2.6 1.76 2.6 c1.2 0 2.44 -0.92 3.32 -1.64 c0.16 -0.16 0.76 -0.68 0.8 -0.72 l1.52 -1.52 l2.12 -2.28 l2.4 -3.04 c0.04 -0.04 0.12 -0.12 0.2 -0.16 c0.24 0 0.72 0.08 0.72 0.44 l-0.12 0.36 l-1.56 2.04 l-2.28 2.68 l-2.08 2.12 c-0.08 0.12 -0.76 0.68 -0.96 0.88 c-1.68 1.4 -3.68 2.72 -5.96 2.72 c-2.56 0 -4.24 -1.08 -4.24 -3.72 z M15.36 26.759999999999998 l0 0.04 c0.16 -0.04 0.88 -0.2 1.04 -0.24 c0.16 -0.08 0.8 -0.24 0.92 -0.28 c0.16 -0.08 0.76 -0.32 0.92 -0.36 c0.84 -0.36 2.44 -1.28 2.44 -2.4 c0 -0.4 -0.24 -0.68 -0.68 -0.68 c-1.68 0 -3.64 1.4 -4.32 2.88 c-0.12 0.32 -0.32 0.72 -0.32 1.04 z M36.52 22.84 c0.24 -0.44 0.56 -1.28 1.2 -1.28 c0.28 0 0.52 0.16 0.8 0.32 c0.48 0.32 1.4 0.76 1.4 1.52 c0 0.28 -0.16 0.52 -0.28 0.72 l-1.44 3.04 l-1.48 3.68 l-0.56 1.72 l-0.4 1.44 c-0.08 0.4 -0.16 0.92 -0.16 1.4 c0 0.08 0 0.32 0.12 0.32 c0.36 0 0.76 -0.44 0.96 -0.64 l0.56 -0.56 c0.16 -0.2 0.72 -0.8 0.8 -0.88 l2.32 -2.8 l5.16 -6.96 c0.08 -0.08 0.16 -0.24 0.32 -0.24 c0.32 0 0.64 0.16 0.64 0.56 l0 0.08 l-1.12 1.64 l-4.88 6.52 l-1.88 2.16 c-0.08 0.04 -0.88 0.88 -1.16 1.16 c-0.52 0.52 -1.76 1.64 -2.56 1.64 c-1.92 0 -2.48 -1.68 -2.48 -3.32 c0 -1.48 0.4 -2.92 0.92 -4.32 c-0.04 0 -0.08 0.04 -0.08 0.04 c-0.12 0.08 -0.52 0.44 -0.6 0.52 l-1.76 1.52 c-0.12 0.08 -0.92 0.68 -1.16 0.84 c-0.76 0.56 -1.76 1.2 -2.76 1.2 c-1.4 0 -2.08 -1.12 -2.08 -2.4 c0 -1.04 0.36 -2.04 0.8 -2.96 c1.44 -3.12 4.84 -6.8 8.6 -6.8 c0.72 0 1.32 0.24 1.84 0.72 c0.08 0.04 0.36 0.4 0.4 0.4 z M27.92 31.68 c0 0.24 0.2 0.32 0.4 0.32 c0.4 0 0.8 -0.28 1.12 -0.48 c0.16 -0.12 0.72 -0.48 0.76 -0.52 l1.52 -1.2 l2.48 -2.36 l0.92 -1.96 c0.16 -0.32 0.28 -0.72 0.28 -1.08 c0 -0.28 -0.12 -0.4 -0.4 -0.4 c-0.48 0 -1.04 0.28 -1.48 0.52 c-2.2 1.2 -4.36 3.56 -5.28 5.92 c-0.16 0.36 -0.32 0.84 -0.32 1.24 z M33.32 29.759999999999998 l0 -0.04 l0 0.04 z M45.88 21.52 l0 -0.08 s0.16 -0.2 0.28 -0.32 c1.28 0.24 2.44 1.04 2.44 2.44 c0 0.2 -0.04 0.44 -0.12 0.6 l-1.24 2.88 c0.12 -0.16 0.64 -0.84 0.76 -0.96 c0.2 -0.28 1.24 -1.52 1.48 -1.76 c0.96 -1.2 3.04 -3.12 4.52 -3.12 c1.2 0 1.76 0.96 1.76 2.08 c0 0.88 -0.28 1.72 -0.72 2.52 l-1.72 3.28 c0.04 -0.08 0.32 -0.36 0.36 -0.4 l4.04 -4.04 l1.44 -1.24 c0.08 -0.08 0.76 -0.6 0.96 -0.76 c0.96 -0.64 2.12 -1.4 3.32 -1.4 c0.92 0 1.56 0.44 1.56 1.4 c0 0.72 -0.84 3.36 -1.4 3.92 l-2.36 4 c-0.48 0.84 -0.92 1.92 -0.92 2.88 c0 0.36 0 0.96 0.4 1.12 l0.12 0 c1.12 0 2.24 -1.16 2.88 -1.92 c0.12 -0.12 0.6 -0.64 0.68 -0.72 c0.2 -0.28 0.92 -1.2 1 -1.32 l3.92 -5.72 c0.16 -0.24 0.28 -0.4 0.28 -0.68 l0.2 0 c0.32 0 0.52 0 0.72 0.32 c0.04 0.04 0.08 0.12 0.08 0.2 c0 0.04 0 0.04 -0.04 0.08 c-0.08 0.24 -0.44 0.76 -0.44 0.8 l-2.44 3.8 l-2.36 3.24 c-1 1.52 -3.44 3.72 -5.24 3.72 c-2 0 -3.12 -1.16 -3.12 -3.12 c0 -1.32 0.48 -2.56 1.08 -3.68 l1.8 -3.36 c0.16 -0.32 0.36 -0.68 0.36 -1.04 c0 -0.04 0 -0.12 -0.04 -0.16 l-0.08 0 c-0.52 0 -1.8 0.76 -2.24 1.2 c-0.28 0.24 -1.08 0.92 -1.16 1 l-2 1.96 l-2.6 2.84 l-1.72 2.36 c-0.36 0.48 -0.84 0.64 -1.44 0.64 c-0.8 0 -2.12 0 -2.12 -1.16 c0 -0.12 0 -0.24 0.04 -0.32 l4.16 -7.92 c0.08 -0.16 0.2 -0.44 0.24 -0.64 c-0.8 0.32 -1.48 1.08 -2.04 1.68 c-0.24 0.28 -0.88 1 -0.96 1.08 l-1.4 1.76 l-1.2 1.8 c-0.2 0.28 -0.48 0.76 -0.64 1.12 l-0.88 2.28 c0 0.04 0 0.04 -0.04 0.08 c-0.36 0.2 -0.76 0.36 -1.2 0.36 c-0.88 0 -1.76 -0.44 -2.32 -1.08 l0 -0.12 c0 -1 0.92 -3.72 1.32 -4.6 l0.96 -2.2 z M53.28 29.08 l0 0.04 c0.04 0 0.04 -0.04 0 -0.04 z M47.24 27.08 l0 -0.04 c-0.04 0 -0.04 0.04 0 0.04 z M82.08000000000001 23.56 l4.64 -10.24 l0.88 0 c1 0 2.04 0.56 2.4 1.52 c0.08 0.12 0.12 0.28 0.12 0.44 l-3.76 7.72 l-3.16 7.76 l-1.12 3.52 l-0.48 1.92 c-0.2 0.96 -0.32 2 -0.32 3 c0 1.64 0.28 2.8 2.04 3 c0.12 0.16 0.16 0.32 0.16 0.48 c0 0.28 -0.12 0.48 -0.28 0.64 c-3.12 0 -6.24 -0.68 -6.24 -4.48 c0 -1.6 0.4 -3.2 1 -4.68 l0.76 -2.04 l0.04 -0.04 l-0.04 0 l-2.8 4.36 c-0.04 0.04 -0.44 0.6 -0.6 0.76 c-1.2 1.48 -3.12 3.48 -5.2 3.48 c-2.48 0 -3.36 -2.48 -3.36 -4.56 c0 -1.96 0.64 -4.04 1.4 -5.8 l3.16 -7 l1.04 -2.64 c0.04 -0.16 0.4 -1.24 0.52 -1.6 c0.2 -0.72 0.36 -1.48 0.36 -2.24 c0 -1.56 -0.68 -2.36 -2.2 -2.4 c-0.08 -0.12 -0.16 -0.28 -0.16 -0.48 c0 -0.24 0.12 -0.48 0.32 -0.64 c2.8 0 5.64 1.44 5.64 4.6 c0 1.4 -0.48 2.8 -0.96 4.08 c-0.12 0.36 -0.52 1.48 -0.56 1.6 l-3.6 8.2 l-0.64 1.8 c-0.4 1.12 -0.68 2.52 -0.68 3.76 c0 0.56 0.04 1.52 0.84 1.52 c0.76 0 1.52 -0.68 2.04 -1.2 c0.12 -0.08 0.64 -0.56 0.72 -0.68 c0.08 -0.08 0.44 -0.52 0.56 -0.64 c0.16 -0.2 0.68 -0.88 0.76 -0.92 l1.44 -2.16 l1.92 -3.2 z M78.80000000000001 32 l0 0 c-0.04 0 -0.04 0 0 0 z M78.76 32.04 l0 0 z M87.48 26.28 c0 -3.16 2.08 -6.48 5.56 -6.48 c0.52 0 1 0.24 1.28 0.68 c0.04 0.12 0.4 0.68 0.44 0.84 c0 0 -0.08 0 -0.12 -0.04 c-0.44 -0.2 -0.84 -0.48 -1.32 -0.48 c-1.64 0 -2.64 2.56 -2.64 3.92 c0 0.52 0.08 1 0.24 1.48 l0.76 2.64 l0.12 0.8 c0.04 0 0.12 -0.08 0.16 -0.08 l1.84 -0.88 c1.8 -0.92 3.36 -2.12 4.6 -3.68 c0.08 -0.08 0.24 -0.08 0.32 -0.08 c0.32 0 0.56 0.2 0.56 0.52 l0 0.12 c-0.88 1.52 -3.72 3.44 -5.24 4.12 l-2.16 1.04 l-0.04 0.08 c-0.04 0.76 -0.16 1.48 -0.44 2.2 c-1.24 3.12 -4.8 5.16 -8.08 5.16 c-0.88 -0.12 -1.56 -0.6 -1.72 -1.48 c0 -2.04 1.72 -3.12 3.32 -4 c0.2 -0.12 0.88 -0.48 1 -0.52 l2 -0.88 c0.04 0 0.04 -0.08 0.04 -0.08 l0 -0.4 c0 -0.16 0 -0.44 -0.04 -0.64 l-0.32 -2.4 c-0.08 -0.48 -0.12 -0.96 -0.12 -1.48 z M84.48 34.08 c-0.68 0.36 -1.32 1.24 -1.32 2.04 c0 0.44 0.32 0.6 0.72 0.6 c1.48 0 2.6 -1.76 3.24 -2.88 c0 -0.08 0.2 -0.44 0.28 -0.56 c0.08 -0.16 0.28 -0.56 0.28 -0.8 c-0.04 0 -0.96 0.44 -1.36 0.64 c-0.28 0.12 -1.56 0.8 -1.84 0.96 z" fill="url(&quot;#SvgjsLinearGradient3514&quot;)"></path></g></svg>